<?xml version="1.0" encoding="utf-8"?>
<svg version="1.1" id="Layer_1" xmlns="http://www.w3.org/2000/svg" xmlns:xlink="http://www.w3.org/1999/xlink" x="0px" y="0px"
	 width="900px" height="600px" viewBox="0 0 900 600" style="enable-background:new 0 0 900 600;" xml:space="preserve">
<style type="text/css">
	.st0{fill:#0DB2A1;}
	.st1{fill:#FFFFFF;}
</style>
<polygon class="st0" points="370,290.5 370,291.5 370,376 370,377 530,284.6 530,283.6 530,199.1 530,198.1 "/>
<polygon class="st0" points="487.3,117.8 370,185.5 370,186.5 370,271 370,272 487.3,204.3 "/>
<g>
	<path class="st1" d="M305.2,442.8h-19v-0.6h0.8c1.4,0,2.5-0.6,3.3-1.9c0.3-0.6,0.5-1.2,0.5-1.9v-33.5c0-1-0.4-1.9-1.2-2.6
		c-0.7-0.7-1.6-1.1-2.7-1.1h-0.8v-0.6h17.5c4.7,0,8.4,0.8,11.1,2.5c2.7,1.7,4.1,4.3,4.2,7.8c0,1.8-0.4,3.3-1.1,4.6
		c-1.3,2.5-3.4,3.9-6.3,4.3c3.1,0.3,5.6,1.4,7.6,3.5c2,2,3,4.6,3,7.7c0,3.8-1.5,6.7-4.5,8.7C314.6,441.7,310.5,442.8,305.2,442.8z
		 M309.3,411.7c0-5.7-2.6-8.5-7.7-8.5h-1.7V440h2.8c0,0,0.1,0,0.1,0c2.8,0,5-0.8,6.6-2.4c1.6-1.6,2.5-4.1,2.5-7.3s-0.9-5.7-2.8-7.3
		c-1.8-1.6-4.2-2.4-7.2-2.4v-0.5c2.1,0,3.8-0.7,5.2-2C308.6,416.6,309.3,414.5,309.3,411.7z"/>
	<path class="st1" d="M365.5,442.1h0.5v0.6h-17.7v-0.6h0.5c0.8,0,1.4-0.2,1.7-0.7c0.4-0.5,0.5-0.9,0.5-1.3c0-0.4-0.1-0.8-0.2-1.3
		l-2.3-5.5h-12.8l-2.4,5.6c-0.2,0.4-0.2,0.8-0.2,1.2c0,0.4,0.2,0.9,0.6,1.3c0.4,0.5,1,0.7,1.8,0.7h0.5v0.6h-12v-0.6h0.5
		c0.8,0,1.7-0.3,2.5-0.8c0.8-0.5,1.5-1.3,2-2.3l12.5-26.7c1.8-4,2.7-6.4,2.8-7.3h0.5l16.1,33.8c0.5,1.2,1.2,2,2.1,2.6
		C363.7,441.9,364.6,442.1,365.5,442.1z M336.7,431h10.7l-5.3-12.6L336.7,431z"/>
	<path class="st1" d="M369.2,437.8c0-2.6,0.6-4.8,1.7-6.7h0.5c0,0.3-0.1,0.5-0.1,0.8c0,2.4,0.9,4.6,2.6,6.4c1.7,1.8,4.2,2.8,7.3,2.8
		c2.2,0,4-0.5,5.2-1.6c1.2-1,1.8-2.2,1.8-3.5c0-1.3-0.4-2.3-1.1-3.1c-0.7-0.8-1.9-1.7-3.5-2.7l-8.5-5.4c-3.6-2.2-5.4-5.1-5.4-8.7
		c0-0.4,0-0.7,0.1-1.1c0.2-2.8,1.3-5.1,3.3-6.7c2-1.6,4.3-2.4,7-2.4c2.7,0,5.5,0.2,8.5,0.5h3.3l-0.8,7.9h-0.5c0-1.9-0.7-3.4-2-4.5
		c-1.3-1.1-3-1.6-5.2-1.6c-2.1,0-3.8,0.5-5.1,1.4c-1.2,0.9-1.9,2.1-1.9,3.6c0,1.2,0.6,2.2,1.8,3.1c0.5,0.4,1.2,0.8,2.1,1.4l9.6,5.9
		c3.3,2,4.9,4.8,4.9,8.3c0,3.7-1.3,6.6-3.9,8.6c-2.6,2-6,3-10.2,3c-2.6,0-4.8-0.3-6.8-0.9c-2-0.6-3.4-1.4-4.3-2.3
		C369.3,439.6,369.2,438.8,369.2,437.8z"/>
	<path class="st1" d="M400.5,442.1h0.7c1,0,1.8-0.3,2.5-0.9c0.7-0.6,1-1.4,1-2.3v-28.5c0-0.9-0.3-1.6-1-2.3
		c-0.7-0.6-1.5-0.9-2.5-0.9h-0.7v-0.6h17.1v0.6h-0.7c-0.9,0-1.7,0.3-2.4,0.9c-0.7,0.6-1,1.3-1.1,2.2V439c0,0.9,0.4,1.7,1.1,2.3
		c0.7,0.6,1.5,0.9,2.4,0.9h0.7v0.6h-17.1V442.1z"/>
	<path class="st1" d="M422.9,442.8v-0.6h0.7c0.9,0,1.7-0.3,2.3-0.9c0.6-0.6,0.9-1.3,0.9-2.2v-28.6c0-0.9-0.3-1.6-1-2.3
		c-0.6-0.6-1.4-0.9-2.3-0.9h-0.7v-0.6h16.7v0.6h-0.7c-0.9,0-1.7,0.3-2.3,0.9c-0.6,0.6-1,1.4-1,2.3v29.9h7.2c2.5,0,4.6-0.8,6.3-2.3
		c1.7-1.5,3-3.6,3.8-6.4h0.7l-2.3,11.1H422.9z"/>
	<path class="st1" d="M456.8,442.1h0.7c1,0,1.8-0.3,2.5-0.9c0.7-0.6,1-1.4,1-2.3v-28.5c0-0.9-0.3-1.6-1-2.3
		c-0.7-0.6-1.5-0.9-2.5-0.9h-0.7v-0.6h17.1v0.6h-0.7c-0.9,0-1.7,0.3-2.4,0.9c-0.7,0.6-1,1.3-1.1,2.2V439c0,0.9,0.4,1.7,1.1,2.3
		c0.7,0.6,1.5,0.9,2.4,0.9h0.7v0.6h-17.1V442.1z"/>
	<path class="st1" d="M484.7,438.5c-3.9-3.3-5.8-7.9-5.8-13.8c0-5.9,1.9-10.5,5.7-13.8c3.8-3.3,9.1-5,15.9-5c5.3,0,9.8,0.9,13.5,2.8
		v9.6h-0.4c-1-3.6-2.5-6.1-4.6-7.6c-2.1-1.5-4.7-2.3-7.9-2.3c-4.3,0-7.5,1.5-9.8,4.4c-2.2,2.9-3.4,6.9-3.4,11.9c0,5,1.1,9,3.3,12
		c2.3,3.1,5.4,4.6,9.3,4.6c2.8,0,5.2-0.4,7-1.3c1.8-0.9,3.3-2.3,4.4-4.2c1.1-1.9,1.9-4.6,2.4-7.9h0.4l0.7,9.1
		c-1.2,2-3.1,3.7-5.7,4.9c-2.5,1.2-5.7,1.9-9.4,1.9C493.9,443.5,488.6,441.8,484.7,438.5z"/>
	<path class="st1" d="M522.5,424.7c0-5.8,1.9-10.4,5.8-13.8c3.9-3.4,9-5.1,15.5-5.1s11.6,1.7,15.5,5.1c3.9,3.4,5.8,8,5.8,13.8
		c0,5.8-1.9,10.4-5.8,13.8c-3.9,3.4-9,5.1-15.5,5.1c-6.4,0-11.6-1.7-15.5-5.1C524.5,435.1,522.5,430.5,522.5,424.7z M531.7,424.7
		c0,5.1,1.1,9.1,3.3,12c2.2,2.9,5.1,4.4,8.8,4.4c3.7,0,6.6-1.5,8.8-4.4c2.2-2.9,3.3-7,3.3-12c0-5.1-1.1-9.1-3.3-12
		c-2.2-2.9-5.1-4.4-8.8-4.4c-3.7,0-6.6,1.5-8.8,4.4C532.8,415.6,531.7,419.6,531.7,424.7z"/>
	<path class="st1" d="M596.9,406.6h16.9v0.6h-1c-0.9,0-1.7,0.3-2.3,0.8c-0.6,0.6-1,1.3-1,2.2v26.3c0,2.5,0.2,4.5,0.5,6.1l0.1,0.8
		h-0.5l-27.6-24.4v19.9c0,0.9,0.4,1.6,1,2.2c0.6,0.6,1.4,0.9,2.3,0.9h1v0.6h-16.9v-0.6h1c0.9,0,1.7-0.3,2.3-0.9c0.6-0.6,1-1.3,1-2.2
		v-26.5c0-2.4-0.2-4.4-0.5-6l-0.1-0.8l0.5,0.1l27.6,24.3v-19.8c0-0.9-0.3-1.6-0.9-2.2c-0.6-0.6-1.4-0.9-2.3-0.9h-1V406.6z"/>
</g>
<g>
	<path class="st1" d="M351.5,473.4L351.5,473.4c0-4.9,3.6-9,8.7-9c3.1,0,5,1.1,6.7,2.7l-1.3,1.4c-1.5-1.4-3.1-2.4-5.4-2.4
		c-3.8,0-6.7,3.1-6.7,7.1v0c0,4,2.9,7.1,6.7,7.1c2.4,0,3.9-0.9,5.6-2.5l1.3,1.3c-1.8,1.8-3.8,3-6.9,3
		C355.2,482.2,351.5,478.3,351.5,473.4z"/>
	<path class="st1" d="M372.9,473.4L372.9,473.4c0-4.8,3.6-9,8.8-9s8.8,4.1,8.8,8.9v0c0,4.8-3.6,8.9-8.8,8.9S372.9,478.1,372.9,473.4
		z M388.5,473.4L388.5,473.4c0-4-2.9-7.2-6.8-7.2s-6.8,3.2-6.8,7.1v0c0,3.9,2.9,7.1,6.8,7.1S388.5,477.3,388.5,473.4z"/>
	<path class="st1" d="M398.3,464.7h1.8l10.9,13.8v-13.8h1.9v17.3h-1.6l-11.1-14.1v14.1h-1.9V464.7z"/>
	<path class="st1" d="M420.4,479.4l1.2-1.4c1.8,1.6,3.5,2.4,5.9,2.4c2.3,0,3.8-1.2,3.8-2.9v-0.1c0-1.6-0.9-2.5-4.5-3.3
		c-4-0.9-5.8-2.1-5.8-5v0c0-2.7,2.4-4.7,5.7-4.7c2.5,0,4.3,0.7,6.1,2.1l-1.1,1.5c-1.6-1.3-3.2-1.9-5-1.9c-2.2,0-3.7,1.2-3.7,2.8v0
		c0,1.6,0.9,2.5,4.7,3.4c3.8,0.8,5.6,2.2,5.6,4.9v0c0,3-2.5,4.9-5.9,4.9C424.7,482.2,422.4,481.3,420.4,479.4z"/>
	<path class="st1" d="M440.7,474.7v-10h1.9v9.9c0,3.7,2,5.8,5.3,5.8c3.2,0,5.2-1.9,5.2-5.7v-10h1.9v9.9c0,5-2.9,7.6-7.2,7.6
		C443.6,482.2,440.7,479.6,440.7,474.7z"/>
	<path class="st1" d="M463.4,464.7h1.9v15.5h9.7v1.8h-11.7V464.7z"/>
	<path class="st1" d="M484.4,466.5h-5.8v-1.8h13.6v1.8h-5.8v15.5h-2V466.5z"/>
	<path class="st1" d="M499.7,464.7h1.9v17.3h-1.9V464.7z"/>
	<path class="st1" d="M510.4,464.7h1.8l10.9,13.8v-13.8h1.9v17.3h-1.6l-11.1-14.1v14.1h-1.9V464.7z"/>
	<path class="st1" d="M532.8,473.4L532.8,473.4c0-4.8,3.5-9,8.7-9c2.9,0,4.7,0.8,6.4,2.3l-1.3,1.5c-1.3-1.2-2.8-2-5.2-2
		c-3.8,0-6.6,3.2-6.6,7.1v0c0,4.1,2.6,7.2,6.8,7.2c2,0,3.8-0.8,5-1.7v-4.3h-5.2v-1.8h7.1v6.9c-1.6,1.4-4,2.6-6.9,2.6
		C536.1,482.2,532.8,478.3,532.8,473.4z"/>
</g>
</svg>
