<svg width="219" height="121" viewBox="0 0 219 121" fill="none" xmlns="http://www.w3.org/2000/svg">
<rect x="58" y="68" width="157" height="24" fill="#3E1EBB"/>
<path d="M94.5781 76.348C94.5099 75.7429 94.2287 75.2741 93.7344 74.9418C93.2401 74.6051 92.6179 74.4368 91.8679 74.4368C91.331 74.4368 90.8665 74.522 90.4744 74.6925C90.0824 74.8587 89.7777 75.0888 89.5604 75.3828C89.3473 75.6726 89.2408 76.0028 89.2408 76.3736C89.2408 76.6847 89.3132 76.9531 89.4581 77.179C89.6072 77.4048 89.8011 77.5945 90.0398 77.7479C90.2827 77.897 90.5426 78.0227 90.8196 78.125C91.0966 78.223 91.3629 78.304 91.6186 78.3679L92.897 78.7003C93.3146 78.8026 93.7429 78.9411 94.1818 79.1158C94.6207 79.2905 95.0277 79.5206 95.4027 79.8061C95.7777 80.0916 96.0803 80.4453 96.3104 80.8672C96.5447 81.2891 96.6619 81.794 96.6619 82.3821C96.6619 83.1236 96.4702 83.782 96.0866 84.3572C95.7074 84.9325 95.1555 85.3864 94.4311 85.7188C93.7109 86.0511 92.8395 86.2173 91.8168 86.2173C90.8366 86.2173 89.9886 86.0618 89.2727 85.7507C88.5568 85.4396 87.9964 84.9986 87.5916 84.4276C87.1868 83.8523 86.9631 83.1705 86.9205 82.3821H88.902C88.9403 82.8551 89.0938 83.2493 89.3622 83.5646C89.6349 83.8757 89.9822 84.108 90.4041 84.2614C90.8303 84.4105 91.2969 84.4851 91.804 84.4851C92.3622 84.4851 92.8587 84.3977 93.2933 84.223C93.7322 84.044 94.0774 83.7969 94.3288 83.4815C94.5803 83.1619 94.706 82.7891 94.706 82.3629C94.706 81.9751 94.5952 81.6577 94.3736 81.4105C94.1563 81.1634 93.8601 80.9588 93.4851 80.7969C93.1143 80.6349 92.6946 80.4922 92.2259 80.3686L90.679 79.9467C89.6307 79.6612 88.7997 79.2415 88.1861 78.6875C87.5767 78.1335 87.272 77.4006 87.272 76.4886C87.272 75.7344 87.4766 75.076 87.8857 74.5135C88.2947 73.951 88.8487 73.5142 89.5476 73.2031C90.2464 72.8878 91.0348 72.7301 91.9126 72.7301C92.799 72.7301 93.581 72.8857 94.2585 73.1967C94.9403 73.5078 95.4773 73.9361 95.8693 74.4815C96.2614 75.0227 96.4659 75.6449 96.483 76.348H94.5781ZM110.394 79.4545C110.394 80.8523 110.138 82.054 109.627 83.0597C109.115 84.0611 108.414 84.8324 107.524 85.3736C106.637 85.9105 105.629 86.179 104.5 86.179C103.367 86.179 102.355 85.9105 101.464 85.3736C100.578 84.8324 99.8787 84.0589 99.3674 83.0533C98.856 82.0476 98.6003 80.848 98.6003 79.4545C98.6003 78.0568 98.856 76.8572 99.3674 75.8558C99.8787 74.8501 100.578 74.0788 101.464 73.5419C102.355 73.0007 103.367 72.7301 104.5 72.7301C105.629 72.7301 106.637 73.0007 107.524 73.5419C108.414 74.0788 109.115 74.8501 109.627 75.8558C110.138 76.8572 110.394 78.0568 110.394 79.4545ZM108.438 79.4545C108.438 78.3892 108.265 77.4922 107.92 76.7635C107.579 76.0305 107.11 75.4766 106.514 75.1016C105.921 74.7223 105.25 74.5327 104.5 74.5327C103.746 74.5327 103.073 74.7223 102.48 75.1016C101.888 75.4766 101.419 76.0305 101.074 76.7635C100.733 77.4922 100.563 78.3892 100.563 79.4545C100.563 80.5199 100.733 81.419 101.074 82.152C101.419 82.8807 101.888 83.4347 102.48 83.8139C103.073 84.1889 103.746 84.3764 104.5 84.3764C105.25 84.3764 105.921 84.1889 106.514 83.8139C107.11 83.4347 107.579 82.8807 107.92 82.152C108.265 81.419 108.438 80.5199 108.438 79.4545ZM112.856 86V72.9091H114.831V84.2997H120.763V86H112.856ZM131.435 72.9091H133.416V81.5192C133.416 82.4354 133.201 83.2472 132.771 83.9545C132.34 84.6577 131.735 85.2116 130.955 85.6165C130.175 86.017 129.261 86.2173 128.213 86.2173C127.169 86.2173 126.257 86.017 125.477 85.6165C124.697 85.2116 124.092 84.6577 123.662 83.9545C123.232 83.2472 123.016 82.4354 123.016 81.5192V72.9091H124.991V81.3594C124.991 81.9517 125.121 82.478 125.381 82.9382C125.646 83.3984 126.018 83.7607 126.5 84.0249C126.982 84.2848 127.553 84.4148 128.213 84.4148C128.878 84.4148 129.451 84.2848 129.933 84.0249C130.418 83.7607 130.789 83.3984 131.045 82.9382C131.305 82.478 131.435 81.9517 131.435 81.3594V72.9091ZM135.642 74.6094V72.9091H145.774V74.6094H141.689V86H139.72V74.6094H135.642ZM149.988 72.9091V86H148.012V72.9091H149.988ZM164.235 79.4545C164.235 80.8523 163.98 82.054 163.468 83.0597C162.957 84.0611 162.256 84.8324 161.365 85.3736C160.479 85.9105 159.471 86.179 158.342 86.179C157.208 86.179 156.196 85.9105 155.306 85.3736C154.419 84.8324 153.721 84.0589 153.209 83.0533C152.698 82.0476 152.442 80.848 152.442 79.4545C152.442 78.0568 152.698 76.8572 153.209 75.8558C153.721 74.8501 154.419 74.0788 155.306 73.5419C156.196 73.0007 157.208 72.7301 158.342 72.7301C159.471 72.7301 160.479 73.0007 161.365 73.5419C162.256 74.0788 162.957 74.8501 163.468 75.8558C163.98 76.8572 164.235 78.0568 164.235 79.4545ZM162.279 79.4545C162.279 78.3892 162.107 77.4922 161.762 76.7635C161.421 76.0305 160.952 75.4766 160.355 75.1016C159.763 74.7223 159.092 74.5327 158.342 74.5327C157.588 74.5327 156.914 74.7223 156.322 75.1016C155.73 75.4766 155.261 76.0305 154.916 76.7635C154.575 77.4922 154.404 78.3892 154.404 79.4545C154.404 80.5199 154.575 81.419 154.916 82.152C155.261 82.8807 155.73 83.4347 156.322 83.8139C156.914 84.1889 157.588 84.3764 158.342 84.3764C159.092 84.3764 159.763 84.1889 160.355 83.8139C160.952 83.4347 161.421 82.8807 161.762 82.152C162.107 81.419 162.279 80.5199 162.279 79.4545ZM177.264 72.9091V86H175.449L168.795 76.3991H168.673V86H166.698V72.9091H168.526L175.187 82.5227H175.308V72.9091H177.264ZM187.285 76.348C187.217 75.7429 186.936 75.2741 186.441 74.9418C185.947 74.6051 185.325 74.4368 184.575 74.4368C184.038 74.4368 183.574 74.522 183.181 74.6925C182.789 74.8587 182.485 75.0888 182.267 75.3828C182.054 75.6726 181.948 76.0028 181.948 76.3736C181.948 76.6847 182.02 76.9531 182.165 77.179C182.314 77.4048 182.508 77.5945 182.747 77.7479C182.99 77.897 183.25 78.0227 183.527 78.125C183.804 78.223 184.07 78.304 184.326 78.3679L185.604 78.7003C186.022 78.8026 186.45 78.9411 186.889 79.1158C187.328 79.2905 187.735 79.5206 188.11 79.8061C188.485 80.0916 188.787 80.4453 189.017 80.8672C189.252 81.2891 189.369 81.794 189.369 82.3821C189.369 83.1236 189.177 83.782 188.794 84.3572C188.414 84.9325 187.863 85.3864 187.138 85.7188C186.418 86.0511 185.547 86.2173 184.524 86.2173C183.544 86.2173 182.696 86.0618 181.98 85.7507C181.264 85.4396 180.703 84.9986 180.299 84.4276C179.894 83.8523 179.67 83.1705 179.627 82.3821H181.609C181.647 82.8551 181.801 83.2493 182.069 83.5646C182.342 83.8757 182.689 84.108 183.111 84.2614C183.537 84.4105 184.004 84.4851 184.511 84.4851C185.069 84.4851 185.566 84.3977 186 84.223C186.439 84.044 186.784 83.7969 187.036 83.4815C187.287 83.1619 187.413 82.7891 187.413 82.3629C187.413 81.9751 187.302 81.6577 187.081 81.4105C186.863 81.1634 186.567 80.9588 186.192 80.7969C185.821 80.6349 185.402 80.4922 184.933 80.3686L183.386 79.9467C182.338 79.6612 181.507 79.2415 180.893 78.6875C180.284 78.1335 179.979 77.4006 179.979 76.4886C179.979 75.7344 180.184 75.076 180.593 74.5135C181.002 73.951 181.556 73.5142 182.255 73.2031C182.953 72.8878 183.742 72.7301 184.62 72.7301C185.506 72.7301 186.288 72.8857 186.966 73.1967C187.647 73.5078 188.184 73.9361 188.576 74.4815C188.968 75.0227 189.173 75.6449 189.19 76.348H187.285Z" fill="white"/>
<path d="M72.0092 49.1797C71.9098 48.2493 71.4908 47.5249 70.7521 47.0064C70.0206 46.4879 69.0689 46.2287 67.897 46.2287C67.0732 46.2287 66.3665 46.353 65.777 46.6016C65.1875 46.8501 64.7365 47.1875 64.424 47.6136C64.1115 48.0398 63.9517 48.5263 63.9446 49.0732C63.9446 49.5277 64.0476 49.9219 64.2536 50.2557C64.4666 50.5895 64.7543 50.8736 65.1165 51.108C65.4787 51.3352 65.88 51.527 66.3203 51.6832C66.7607 51.8395 67.2045 51.9709 67.652 52.0774L69.6974 52.5888C70.5213 52.7805 71.3132 53.0398 72.0732 53.3665C72.8402 53.6932 73.5256 54.1051 74.1293 54.6023C74.7401 55.0994 75.223 55.6996 75.5781 56.4027C75.9332 57.1058 76.1108 57.9297 76.1108 58.8743C76.1108 60.1527 75.7841 61.2784 75.1307 62.2514C74.4773 63.2173 73.5327 63.9737 72.2969 64.5206C71.0682 65.0604 69.5803 65.3303 67.8331 65.3303C66.1357 65.3303 64.6619 65.0675 63.4119 64.5419C62.169 64.0163 61.196 63.2493 60.4929 62.2408C59.7969 61.2322 59.4205 60.0036 59.3636 58.5547H63.2521C63.3089 59.3146 63.5433 59.9467 63.9553 60.451C64.3672 60.9553 64.9034 61.3317 65.5639 61.5803C66.2315 61.8288 66.9773 61.9531 67.8011 61.9531C68.6605 61.9531 69.4134 61.8253 70.0597 61.5696C70.7131 61.3068 71.2244 60.9446 71.5938 60.483C71.9631 60.0142 72.1513 59.4673 72.1584 58.8423C72.1513 58.2741 71.9844 57.8054 71.6577 57.4361C71.331 57.0597 70.8729 56.7472 70.2834 56.4986C69.701 56.2429 69.0192 56.0156 68.2379 55.8168L65.7557 55.1776C63.9588 54.7159 62.5384 54.0163 61.4943 53.0788C60.4574 52.1342 59.9389 50.8807 59.9389 49.3182C59.9389 48.0327 60.2869 46.907 60.983 45.9411C61.6861 44.9751 62.6413 44.2259 63.8487 43.6932C65.0561 43.1534 66.4233 42.8835 67.9503 42.8835C69.4986 42.8835 70.8551 43.1534 72.0199 43.6932C73.1918 44.2259 74.1115 44.968 74.7791 45.9197C75.4467 46.8643 75.7912 47.951 75.8125 49.1797H72.0092ZM79.6344 43.1818H84.4711L90.9483 58.9915H91.204L97.6813 43.1818H102.518V65H98.7253V50.0107H98.5229L92.4931 64.9361H89.6593L83.6294 49.9787H83.427V65H79.6344V43.1818ZM109.624 65H105.405L113.086 43.1818H117.965L125.657 65H121.438L115.611 47.6562H115.441L109.624 65ZM109.762 56.4453H121.268V59.62H109.762V56.4453ZM128.531 65V43.1818H136.713C138.389 43.1818 139.795 43.473 140.931 44.0554C142.075 44.6378 142.938 45.4545 143.52 46.5057C144.11 47.5497 144.404 48.7678 144.404 50.1598C144.404 51.5589 144.106 52.7734 143.51 53.8033C142.92 54.826 142.05 55.6179 140.9 56.179C139.749 56.733 138.336 57.0099 136.659 57.0099H130.832V53.7287H136.127C137.107 53.7287 137.909 53.5937 138.534 53.3239C139.159 53.0469 139.621 52.6456 139.919 52.12C140.225 51.5874 140.377 50.9339 140.377 50.1598C140.377 49.3857 140.225 48.7251 139.919 48.1783C139.614 47.6243 139.149 47.2053 138.524 46.9212C137.899 46.63 137.093 46.4844 136.105 46.4844H132.483V65H128.531ZM139.802 55.1136L145.203 65H140.793L135.488 55.1136H139.802ZM147.084 46.495V43.1818H164.491V46.495H157.748V65H153.827V46.495H147.084Z" fill="#FF5C00"/>
<path d="M193.104 43.1818V65H189.152V43.1818H193.104ZM196.426 46.495V43.1818H213.833V46.495H207.09V65H203.169V46.495H196.426Z" fill="#3E1EBB"/>
<path d="M111.636 100.131V98.3636H120.92V100.131H117.324V110H115.233V100.131H111.636ZM122.71 110V98.3636H130.278V100.131H124.818V103.29H129.886V105.057H124.818V108.233H130.324V110H122.71ZM133.923 110H131.673L135.77 98.3636H138.372L142.474 110H140.224L137.116 100.75H137.026L133.923 110ZM133.997 105.438H140.134V107.131H133.997V105.438ZM144.007 98.3636H146.587L150.041 106.795H150.178L153.632 98.3636H156.212V110H154.189V102.006H154.081L150.865 109.966H149.354L146.138 101.989H146.03V110H144.007V98.3636Z" fill="#3E1EBB"/>
<path d="M26 25C26 24.4477 26.4477 24 27 24H54V97H26V25Z" fill="#FF5C00"/>
<path d="M26 24.5L54.125 6.74648V42.2535L26 24.5Z" fill="#3E1EBB"/>
<path d="M26.014 110.886L26.0757 79.5955L54.1106 97.1136L26.014 110.886Z" fill="#3E1EBB"/>
<path d="M0 95.2L26.25 110.788L26.25 79.6115L0 95.2Z" fill="#A79ADA"/>
<path d="M84.1658 24.4881L54.2457 6.97743L54.2457 41.9987L84.1658 24.4881Z" fill="#A79ADA"/>
<path d="M61 24.5L73 18.0048V30.9952L61 24.5Z" fill="white"/>
<path d="M68 3.5L74 0.468911V6.53109L68 3.5Z" fill="#FF5C00"/>
<path d="M81 11.5L88.5 7.60289V15.3971L81 11.5Z" fill="#3E1EBB"/>
<path d="M85 24.5L73 18.0048V30.9952L85 24.5Z" fill="white"/>
<path d="M72 24.5L81 19.7369V29.2631L72 24.5Z" fill="#8878C6"/>
<path d="M90 24.5L81 19.7369V29.2631L90 24.5Z" fill="#8878C6"/>
<path d="M80 3.5L74 0.468911V6.53109L80 3.5Z" fill="#FF5C00"/>
<path d="M96 11.5L88.5 7.60289V15.3971L96 11.5Z" fill="#3E1EBB"/>
<rect x="164" y="102" width="51" height="4" fill="#3E1EBB"/>
<rect x="58" y="102" width="50" height="4" fill="#3E1EBB"/>
</svg>
